# xmcd
#
# Track frame offsets: 
#        150
#        19982
#        40327
#        59713
#        81430
#        107531
#        129838
#        168983
#        196122
#        218129
#
# Disc length: 3144 seconds
#
# Revision: 0
# Processed by: cddbd v1.5.2PL0 Copyright (c) Steve Scherf et al.
# Submitted via: ExactAudioCopy v0.99pb5
#
DISCID=860c460a
DTITLE=Wade Bowen - Live At Billy Bob´s - CD 2
DYEAR=2010
DGENRE=Country
TTITLE0=Nobody's Fool
TTITLE1=Walkin' Along the Fenceline
TTITLE2=Turn on the Lights
TTITLE3=God Bless This Town
TTITLE4=Please Come to Boston
TTITLE5=Mood Ring
TTITLE6=Resurrection
TTITLE7=Ghost In This Town
TTITLE8=Bottle Into Gold (Studio Bonus)
TTITLE9=Matches (Studio Bonus)
EXTD=
EXTT0=
EXTT1=
EXTT2=
EXTT3=
EXTT4=
EXTT5=
EXTT6=
EXTT7=
EXTT8=
EXTT9=
PLAYORDER=
